<?xml version="1.0" encoding="utf-8"?>
<svg xmlns="http://www.w3.org/2000/svg" viewBox="0 0 200 270" width="200" height="270" xmlns:bx="https://boxy-svg.com">
  <defs>
    <linearGradient gradientUnits="userSpaceOnUse" x1="100" y1="195" x2="100" y2="204" id="gradient-0" spreadMethod="pad" gradientTransform="matrix(1, 0, 0, 1, 0, 6)">
      <stop offset="0" style="stop-color: rgb(184, 145, 46)"/>
      <stop offset="1" style="stop-color: rgb(44.664% 32.443% 0%)"/>
    </linearGradient>
    <linearGradient gradientUnits="userSpaceOnUse" x1="100" y1="182" x2="100" y2="195" id="gradient-1" gradientTransform="matrix(1, 0, 0, 1, 0, 6)">
      <stop offset="0" style="stop-color: rgb(201, 168, 76)"/>
      <stop offset="1" style="stop-color: rgb(47.853% 37.649% 0%)"/>
    </linearGradient>
    <linearGradient gradientUnits="userSpaceOnUse" x1="100" y1="162" x2="100" y2="182" id="gradient-2" gradientTransform="matrix(1, 0, 0, 1, 0, 6)">
      <stop offset="0" style="stop-color: rgb(201, 168, 76)"/>
      <stop offset="1" style="stop-color: rgb(47.853% 37.649% 0%)"/>
    </linearGradient>
  </defs>
  <rect width="200" height="270" fill="#1a1a2e" rx="16"/>
  <path d="M 56 82 L 61 65 L 78 82 L 100 52 L 122 82 L 139 65 L 144 82 L 56 82 Z" fill="#f0efe8"/>
  <path d="M 56 81.531 L 62 120 L 138 120 L 144 81.531 L 56 81.531 Z" fill="#f0efe8" style=""/>
  <rect x="80" y="120" width="40" height="12" fill="#c9a84c"/>
  <path d="M 80,132 L 70,162 L 130,162 L 120,132 Z" fill="#c9a84c"/>
  <path d="M 65 168 L 135 168 L 142 188 L 58 188 L 65 168 Z" style="fill: url(&quot;#gradient-2&quot;);"/>
  <rect x="50" y="188" width="100" height="13" rx="3" style="fill: url(&quot;#gradient-1&quot;);"/>
  <rect x="42" y="201" width="116" height="9" rx="3" style="fill: url(&quot;#gradient-0&quot;);"/>
  <path d="M 50 168 C 50 42 150 42 150 168 C 138.667 189.333 127.333 189.333 116 168 C 105.333 189.333 94.667 189.333 84 168 C 72.667 189.333 61.333 189.333 50 168 Z" fill="#f0efe8" stroke-width="1.5" style=""/>
  <ellipse cx="80" cy="113" rx="14" ry="18" fill="#1a1a2e"/>
  <ellipse cx="120" cy="113" rx="14" ry="18" fill="#1a1a2e"/>
  <ellipse cx="100" cy="148" rx="12" ry="8" fill="#1a1a2e"/>
  <path d="M 79.669 56.788 L 91.923 83.475 L 67.414 83.475 L 79.669 56.788 Z" bx:shape="triangle 67.414 56.788 24.509 26.687 0.5 0 1@67d3c1ae" style="fill: rgb(240, 239, 232);"/>
  <path d="M 120.244 56.515 L 132.499 83.202 L 107.99 83.202 L 120.244 56.515 Z" bx:shape="triangle 107.99 56.515 24.509 26.687 0.5 0 1@62144fcc" style="fill: rgb(240, 239, 232); stroke-width: 1;"/>
</svg>